<?xml version="1.0" encoding="UTF-8"?>
<!-- WareMaster app icon source. Parchment plate + crossed swords. Palette: bg #f1e6c8, border #b29562, swords #8b3a2a. Render to PNG via scripts/build-icon.mjs, then run `pnpm tauri icon src-tauri/icons/source.png`. -->
<svg xmlns="http://www.w3.org/2000/svg" viewBox="0 0 1024 1024" width="1024" height="1024">
  <rect x="40" y="40" width="944" height="944" rx="180" ry="180"
        fill="#f1e6c8" stroke="#b29562" stroke-width="20" />

  <rect x="64" y="64" width="896" height="896" rx="160" ry="160"
        fill="none" stroke="#b29562" stroke-width="4" opacity="0.4" />

  <g transform="translate(192 192) scale(26.6667)"
     fill="none" stroke="#8b3a2a" stroke-width="2.2"
     stroke-linecap="round" stroke-linejoin="round">
    <polyline points="14.5 17.5 3 6 3 3 6 3 17.5 14.5" />
    <line x1="13" x2="19" y1="19" y2="13" />
    <line x1="16" x2="20" y1="16" y2="20" />
    <line x1="19" x2="21" y1="21" y2="19" />
    <polyline points="14.5 6.5 18 3 21 3 21 6 17.5 9.5" />
    <line x1="5" x2="9" y1="14" y2="18" />
    <line x1="7" x2="4" y1="17" y2="20" />
    <line x1="3" x2="5" y1="19" y2="21" />
  </g>
</svg>
